<svg width="16" height="16" viewBox="0 0 16 16" fill="none" xmlns="http://www.w3.org/2000/svg">
<path fill-rule="evenodd" clip-rule="evenodd" d="M8 0C3.58172 0 0 3.58172 0 8C0 12.4183 3.58172 16 8 16H12C12.93 16 13.395 16 13.7765 15.8978C14.8117 15.6204 15.6204 14.8117 15.8978 13.7765C16 13.395 16 12.93 16 12V8C16 3.58172 12.4183 0 8 0ZM4.33247 7.11117C4.33247 6.55888 4.78018 6.11117 5.33247 6.11117H10.6658C11.2181 6.11117 11.6658 6.55888 11.6658 7.11117C11.6658 7.66345 11.2181 8.11117 10.6658 8.11117H5.33247C4.78018 8.11117 4.33247 7.66345 4.33247 7.11117ZM6.99913 10.6667C6.99913 10.1144 7.44685 9.66672 7.99913 9.66672H10.6658C11.2181 9.66672 11.6658 10.1144 11.6658 10.6667C11.6658 11.219 11.2181 11.6667 10.6658 11.6667H7.99913C7.44685 11.6667 6.99913 11.219 6.99913 10.6667Z" fill="#C0C0C0"/>
</svg>
