<svg width="16" height="16" viewBox="0 0 16 16" fill="none" xmlns="http://www.w3.org/2000/svg">
<rect x="5" y="2" width="6" height="12" fill="white"/>
<path d="M8 0C3.582 0 0 3.582 0 8C0 12.418 3.582 16 8 16C12.418 16 16 12.418 16 8C16 3.582 12.418 0 8 0ZM8 13.1067C7.37467 13.1067 6.94667 12.6247 6.94667 12C6.94667 11.3573 7.39267 10.8933 8 10.8933C8.642 10.8933 9.05333 11.3573 9.05333 12C9.05333 12.6253 8.642 13.1067 8 13.1067ZM8.41467 8.88067C8.25533 9.424 7.75333 9.43333 7.586 8.88067C7.39333 8.24333 6.70867 5.824 6.70867 4.25267C6.70867 2.17933 9.30267 2.16933 9.30267 4.25267C9.302 5.83333 8.58067 8.31533 8.41467 8.88067Z" fill="#E11B1B"/>
</svg>
