<svg width="18" height="16" viewBox="0 0 18 16" fill="none" xmlns="http://www.w3.org/2000/svg">
<path fill-rule="evenodd" clip-rule="evenodd" d="M5.62899 3.03696C4.20815 4.00449 3.22545 5.5652 3.03548 7.36163L3.81782 7.15201C4.41797 6.9912 5.03485 7.34735 5.19566 7.9475L6.55446 13.0186C6.71527 13.6188 6.35911 14.2356 5.75897 14.3965L2.86119 15.1729C2.26104 15.3337 1.64416 14.9776 1.48335 14.3774L0.12455 9.3063C-0.0362594 8.70615 0.319896 8.08927 0.920045 7.92846L1.50534 7.77164C1.59054 4.92288 3.26444 2.47455 5.66815 1.28C6.67326 0.780507 7.80591 0.5 9.00193 0.5C10.1979 0.5 11.3306 0.780507 12.3357 1.28C14.7451 2.47737 16.4212 4.93446 16.4991 7.79184L17.009 7.92846C17.6091 8.08927 17.9653 8.70615 17.8045 9.3063L16.4457 14.3774C16.2849 14.9776 15.668 15.3337 15.0678 15.1729L12.17 14.3965C11.5699 14.2356 11.2137 13.6188 11.3745 13.0186L12.7333 7.9475C12.8942 7.34735 13.511 6.9912 14.1112 7.15201L14.9705 7.38226C14.7859 5.57715 13.8011 4.00819 12.3749 3.03696C12.3822 3.10561 12.3708 3.17711 12.3377 3.24353C12.2456 3.42899 12.0205 3.50463 11.835 3.41246C10.982 2.98854 10.0204 2.75 9.00193 2.75C7.98349 2.75 7.02184 2.98854 6.16882 3.41246C5.98335 3.50463 5.75828 3.42899 5.66611 3.24353C5.6331 3.17711 5.62162 3.10561 5.62899 3.03696ZM2.83518 13.627L1.6705 9.28029L3.84383 8.69795L5.00851 13.0446L2.83518 13.627ZM15.0938 13.627L16.2585 9.28029L14.0852 8.69795L12.9205 13.0446L15.0938 13.627Z" fill="#353132"/>
</svg>
