<svg width="17" height="16" viewBox="0 0 20 19" fill="none" xmlns="http://www.w3.org/2000/svg">
<path d="M10 18.0011C9.35502 17.4291 8.62602 16.8341 7.85502 16.2011H7.84502C5.13002 13.9811 2.05302 11.4691 0.694023 8.45912C0.24754 7.50085 0.0109268 6.45825 1.1406e-05 5.40112C-0.00297039 3.95061 0.578794 2.56011 1.61383 1.54389C2.64887 0.527673 4.04981 -0.0284812 5.50002 0.00112428C6.68065 0.00298908 7.83586 0.344205 8.82802 0.984124C9.26399 1.26709 9.65844 1.60938 10 2.00112C10.3435 1.61092 10.7381 1.26883 11.173 0.984124C12.1648 0.344079 13.3197 0.00284283 14.5 0.00112428C15.9502 -0.0284812 17.3512 0.527673 18.3862 1.54389C19.4213 2.56011 20.003 3.95061 20 5.40112C19.9898 6.45994 19.7532 7.50432 19.306 8.46412C17.947 11.4741 14.871 13.9851 12.156 16.2011L12.146 16.2091C11.374 16.8381 10.646 17.4331 10.001 18.0091L10 18.0011Z" fill="#B90C0C"/>
</svg>
