<svg width="14" height="13" viewBox="0 0 14 13" fill="none" xmlns="http://www.w3.org/2000/svg">
<path d="M7.00067 12.0007C6.57067 11.6194 6.08467 11.2227 5.57067 10.8007H5.564C3.754 9.32075 1.70267 7.64608 0.796666 5.63942C0.499011 5.00057 0.341269 4.3055 0.333992 3.60075C0.332004 2.63374 0.719847 1.70674 1.40987 1.02926C2.0999 0.351782 3.03386 -0.0189875 4.00067 0.000749519C4.78775 0.00199272 5.55789 0.22947 6.21933 0.656083C6.50998 0.844729 6.77295 1.07292 7.00067 1.33408C7.22966 1.07394 7.4927 0.845888 7.78267 0.656083C8.44382 0.229386 9.21378 0.00189522 10.0007 0.000749519C10.9675 -0.0189875 11.9014 0.351782 12.5915 1.02926C13.2815 1.70674 13.6693 2.63374 13.6673 3.60075C13.6605 4.30663 13.5028 5.00288 13.2047 5.64275C12.2987 7.64942 10.248 9.32342 8.438 10.8007L8.43133 10.8061C7.91667 11.2254 7.43133 11.6221 7.00133 12.0061L7.00067 12.0007ZM4.00067 1.33408C3.37967 1.32631 2.78071 1.56398 2.334 1.99542C1.90359 2.41819 1.66304 2.99745 1.66728 3.60075C1.67488 4.11442 1.79122 4.62065 2.00867 5.08608C2.43634 5.95189 3.01341 6.73545 3.71333 7.40075C4.374 8.06742 5.134 8.71275 5.79133 9.25542C5.97333 9.40542 6.15867 9.55675 6.344 9.70808L6.46067 9.80342C6.63867 9.94875 6.82267 10.0994 7.00067 10.2474L7.00933 10.2394L7.01333 10.2361H7.01733L7.02333 10.2314H7.02667H7.03L7.042 10.2214L7.06933 10.1994L7.074 10.1954L7.08133 10.1901H7.08533L7.09133 10.1847L7.534 9.82142L7.65 9.72608C7.83733 9.57342 8.02267 9.42208 8.20467 9.27208C8.862 8.72942 9.62267 8.08475 10.2833 7.41475C10.9834 6.74979 11.5604 5.96643 11.988 5.10075C12.2094 4.63128 12.3274 4.11975 12.334 3.60075C12.3368 2.99931 12.0963 2.42228 11.6673 2.00075C11.2215 1.56736 10.6224 1.32774 10.0007 1.33408C9.24195 1.32764 8.51662 1.64566 8.00733 2.20808L7.00067 3.36808L5.994 2.20808C5.48471 1.64566 4.75938 1.32764 4.00067 1.33408Z" fill="white"/>
</svg>
