<svg viewBox="0 0 18 17" fill="none" xmlns="http://www.w3.org/2000/svg">
<path fill-rule="evenodd" clip-rule="evenodd" d="M14.341 0.844678C13.4623 -0.0340015 12.0377 -0.0340004 11.159 0.844679L2.34448 9.65921L1.02566 13.6157C0.732502 14.4951 1.56921 15.3318 2.44869 15.0387L6.40514 13.7199L15.2197 4.90534C16.0984 4.02666 16.0984 2.60204 15.2197 1.72336L14.341 0.844678ZM12.2197 1.90534C12.5126 1.61245 12.9874 1.61245 13.2803 1.90534L14.159 2.78402C14.4519 3.07691 14.4519 3.55178 14.159 3.84468L13.5 4.50369L11.5607 2.56435L12.2197 1.90534ZM10.5 3.62501L12.4393 5.56435L6 12.0037L4.06066 10.0643L10.5 3.62501ZM3.32776 11.4528L4.61158 12.7366L2.68586 13.3785L3.32776 11.4528Z" fill="#231F20"/>
<path d="M1.5 15.3143C1.08579 15.3143 0.75 15.6501 0.75 16.0643C0.75 16.4786 1.08579 16.8143 1.5 16.8143L16.5 16.8143C16.9142 16.8143 17.25 16.4786 17.25 16.0643C17.25 15.6501 16.9142 15.3143 16.5 15.3143L1.5 15.3143Z" fill="#231F20"/>
</svg>
