<svg viewBox="0 0 18 18" fill="none" xmlns="http://www.w3.org/2000/svg">
<path fill-rule="evenodd" clip-rule="evenodd" d="M14.341 1.34468C13.4623 0.465998 12.0377 0.466 11.159 1.34468L2.34448 10.1592L1.02566 14.1157C0.732502 14.9951 1.56921 15.8318 2.44869 15.5387L6.40514 14.2199L15.2197 5.40534C16.0984 4.52666 16.0984 3.10204 15.2197 2.22336L14.341 1.34468ZM12.2197 2.40534C12.5126 2.11245 12.9874 2.11245 13.2803 2.40534L14.159 3.28402C14.4519 3.57691 14.4519 4.05178 14.159 4.34468L13.5 5.00369L11.5607 3.06435L12.2197 2.40534ZM10.5 4.12501L12.4393 6.06435L6 12.5037L4.06066 10.5643L10.5 4.12501ZM3.32776 11.9528L4.61158 13.2366L2.68586 13.8785L3.32776 11.9528Z" fill="#231F20"/>
<path d="M1.5 15.8143C1.08579 15.8143 0.75 16.1501 0.75 16.5643C0.75 16.9786 1.08579 17.3143 1.5 17.3143L16.5 17.3143C16.9142 17.3143 17.25 16.9786 17.25 16.5643C17.25 16.1501 16.9142 15.8143 16.5 15.8143L1.5 15.8143Z" fill="#231F20"/>
</svg>
