<svg width="12" height="12" viewBox="0 0 12 12" fill="none" xmlns="http://www.w3.org/2000/svg">
<path fill-rule="evenodd" clip-rule="evenodd" d="M5.11852 1.09498C5.46984 0.301386 6.596 0.30139 6.94732 1.09498L8.0232 3.52524L10.667 3.79747C11.5303 3.88636 11.8783 4.9574 11.2321 5.53677L9.25325 7.31097L9.81133 9.90948C9.99356 10.758 9.08248 11.4199 8.33179 10.9844L6.03292 9.65068L3.73405 10.9844C2.98336 11.4199 2.07228 10.758 2.25452 9.90948L2.81259 7.31097L0.833737 5.53677C0.18755 4.95741 0.535549 3.88636 1.39887 3.79747L4.04265 3.52524L5.11852 1.09498ZM6.03292 1.49979L4.95705 3.93005C4.81182 4.25812 4.50196 4.48324 4.14507 4.51999L1.50129 4.79221L3.48015 6.56641C3.74728 6.80592 3.86563 7.17017 3.7903 7.52095L3.23222 10.1195L5.53109 8.78571C5.84142 8.60567 6.22442 8.60567 6.53475 8.78571L8.83362 10.1195L8.27555 7.52095C8.20021 7.17017 8.31856 6.80592 8.58569 6.56641L10.5645 4.79221L7.92077 4.51999C7.56388 4.48324 7.25403 4.25812 7.10879 3.93005L6.03292 1.49979Z" fill="#353132"/>
</svg>
