<svg width="18" height="16" viewBox="0 0 18 16" fill="none" xmlns="http://www.w3.org/2000/svg">
<path fill-rule="evenodd" clip-rule="evenodd" d="M10.5 4.25C10.5 6.32107 8.82107 8 6.75 8C4.67893 8 3 6.32107 3 4.25C3 2.17893 4.67893 0.5 6.75 0.5C8.82107 0.5 10.5 2.17893 10.5 4.25ZM9 4.25C9 5.49264 7.99264 6.5 6.75 6.5C5.50736 6.5 4.5 5.49264 4.5 4.25C4.5 3.00736 5.50736 2 6.75 2C7.99264 2 9 3.00736 9 4.25Z" fill="white"/>
<path d="M1.5 14.75C1.5 14.1732 1.73863 13.2407 2.49104 12.4569C3.22522 11.6921 4.51611 11 6.75 11C8.98389 11 10.2748 11.6921 11.009 12.4569C11.7614 13.2407 12 14.1732 12 14.75C12 15.1642 12.3358 15.5 12.75 15.5C13.1642 15.5 13.5 15.1642 13.5 14.75C13.5 13.8268 13.1386 12.5093 12.091 11.4181C11.0252 10.3079 9.3161 9.5 6.75 9.5C4.1839 9.5 2.47478 10.3079 1.40896 11.4181C0.361371 12.5093 0 13.8268 0 14.75C0 15.1642 0.335786 15.5 0.75 15.5C1.16421 15.5 1.5 15.1642 1.5 14.75Z" fill="white"/>
<path fill-rule="evenodd" clip-rule="evenodd" d="M13.1842 8.23684C14.4922 8.23684 15.5526 7.17646 15.5526 5.86842C15.5526 4.56038 14.4922 3.5 13.1842 3.5C11.8761 3.5 10.8158 4.56038 10.8158 5.86842C10.8158 7.17646 11.8761 8.23684 13.1842 8.23684ZM13.1842 7.11184C13.8709 7.11184 14.4276 6.55514 14.4276 5.86842C14.4276 5.1817 13.8709 4.625 13.1842 4.625C12.4975 4.625 11.9408 5.1817 11.9408 5.86842C11.9408 6.55514 12.4975 7.11184 13.1842 7.11184Z" fill="white"/>
<path d="M12.3148 10.4742C12.571 10.4321 12.8596 10.4079 13.1842 10.4079C14.5339 10.4079 15.2721 10.8237 15.6747 11.2431C16.0955 11.6815 16.2236 12.1995 16.2236 12.5C16.2236 12.9142 16.5594 13.25 16.9736 13.25C17.3879 13.25 17.7236 12.9142 17.7236 12.5C17.7236 11.8532 17.4728 10.9502 16.7568 10.2043C16.0226 9.43949 14.8661 8.90793 13.1842 8.90793C12.7851 8.90793 12.415 8.93769 12.072 8.99394C11.6632 9.06098 11.3862 9.44669 11.4533 9.85544C11.5203 10.2642 11.906 10.5412 12.3148 10.4742Z" fill="white"/>
</svg>
