<svg width="12" height="8" viewBox="0 0 12 8" fill="none" xmlns="http://www.w3.org/2000/svg">
<path fill-rule="evenodd" clip-rule="evenodd" d="M8.18353 4.00001C8.18353 5.21144 7.20147 6.19349 5.99004 6.19349C4.77861 6.19349 3.79655 5.21144 3.79655 4.00001C3.79655 2.78858 4.77861 1.80652 5.99004 1.80652C7.20147 1.80652 8.18353 2.78858 8.18353 4.00001ZM5.99004 3.45164C5.99004 3.75449 5.74453 4.00001 5.44167 4.00001C5.13881 4.00001 4.8933 3.75449 4.8933 3.45164C4.8933 3.14878 5.13881 2.90327 5.44167 2.90327C5.74453 2.90327 5.99004 3.14878 5.99004 3.45164Z" fill="white"/>
<path fill-rule="evenodd" clip-rule="evenodd" d="M5.99004 0.161407C2.75154 0.161407 0.940079 2.39343 0.142427 3.55902C-0.0249291 3.80358 -0.052443 4.13016 0.100816 4.40612C0.7878 5.64313 2.77685 7.83861 5.99004 7.83861C9.24034 7.83861 11.2383 5.59249 11.9038 4.36131C12.0122 4.16083 12.0344 3.91432 11.9426 3.68774C11.6659 3.00405 10.9679 2.13071 9.97199 1.43078C8.96291 0.721626 7.60774 0.161407 5.99004 0.161407ZM5.99004 6.74187C3.44333 6.74187 1.7972 5.0771 1.15113 4.02964C1.93432 2.92497 3.44049 1.25815 5.99004 1.25815C7.34676 1.25815 8.48585 1.72686 9.34137 2.3281C10.1286 2.88135 10.6435 3.52335 10.8663 3.96798C10.2498 5.00775 8.589 6.74187 5.99004 6.74187Z" fill="white"/>
</svg>
