<svg width="14" height="12" viewBox="0 0 14 12" fill="none" xmlns="http://www.w3.org/2000/svg">
<path fill-rule="evenodd" clip-rule="evenodd" d="M8.294 2.96214C8.294 4.59809 6.96781 5.92429 5.33186 5.92429C3.69591 5.92429 2.36972 4.59809 2.36972 2.96214C2.36972 1.3262 3.69591 0 5.33186 0C6.96781 0 8.294 1.3262 8.294 2.96214ZM7.10915 2.96214C7.10915 3.94371 6.31343 4.73943 5.33186 4.73943C4.35029 4.73943 3.55457 3.94371 3.55457 2.96214C3.55457 1.98058 4.35029 1.18486 5.33186 1.18486C6.31343 1.18486 7.10915 1.98058 7.10915 2.96214Z" fill="white"/>
<path d="M1.18486 11.2561C1.18486 10.8005 1.37335 10.0639 1.96769 9.44482C2.54762 8.84072 3.56729 8.294 5.33186 8.294C7.09642 8.294 8.1161 8.84072 8.69603 9.44482C9.29037 10.0639 9.47886 10.8005 9.47886 11.2561C9.47886 11.5833 9.7441 11.8486 10.0713 11.8486C10.3985 11.8486 10.6637 11.5833 10.6637 11.2561C10.6637 10.5269 10.3783 9.48624 9.55078 8.62426C8.70888 7.74729 7.35884 7.10915 5.33186 7.10915C3.30488 7.10915 1.95484 7.74729 1.11294 8.62426C0.285449 9.48624 0 10.5269 0 11.2561C0 11.5833 0.265239 11.8486 0.592429 11.8486C0.919618 11.8486 1.18486 11.5833 1.18486 11.2561Z" fill="white"/>
<path fill-rule="evenodd" clip-rule="evenodd" d="M10.4143 6.11137C11.4475 6.11137 12.2851 5.27377 12.2851 4.24054C12.2851 3.20731 11.4475 2.36972 10.4143 2.36972C9.38103 2.36972 8.54343 3.20731 8.54343 4.24054C8.54343 5.27377 9.38103 6.11137 10.4143 6.11137ZM10.4143 5.22273C10.9567 5.22273 11.3964 4.78299 11.3964 4.24054C11.3964 3.6981 10.9567 3.25836 10.4143 3.25836C9.87181 3.25836 9.43207 3.6981 9.43207 4.24054C9.43207 4.78299 9.87181 5.22273 10.4143 5.22273Z" fill="white"/>
<path d="M9.7275 7.87864C9.9299 7.84545 10.1579 7.82632 10.4142 7.82632C11.4804 7.82632 12.0635 8.15477 12.3815 8.48604C12.714 8.83231 12.8151 9.24153 12.8151 9.47889C12.8151 9.80608 13.0804 10.0713 13.4076 10.0713C13.7348 10.0713 14 9.80608 14 9.47889C14 8.96791 13.8019 8.25464 13.2363 7.66549C12.6563 7.06135 11.7428 6.64147 10.4142 6.64147C10.0991 6.64147 9.80664 6.66497 9.53573 6.70941C9.21285 6.76236 8.99404 7.06704 9.047 7.38991C9.09995 7.71279 9.40463 7.9316 9.7275 7.87864Z" fill="white"/>
</svg>
