<svg width="18" height="18" viewBox="0 0 18 18" fill="none" xmlns="http://www.w3.org/2000/svg">
<path d="M3.86461 3.88236C5.17813 2.56432 6.99326 1.75 9 1.75C13.0041 1.75 16.25 4.99594 16.25 9C16.25 13.0041 13.0041 16.25 9 16.25C4.99594 16.25 1.75 13.0041 1.75 9C1.75 8.5858 1.41421 8.25 1 8.25C0.58579 8.25 0.25 8.5858 0.25 9C0.25 13.8325 4.16751 17.75 9 17.75C13.8325 17.75 17.75 13.8325 17.75 9C17.75 4.16751 13.8325 0.25 9 0.25C6.57851 0.25 4.38558 1.23462 2.80213 2.82352C2.77668 2.84906 2.75345 2.87597 2.73245 2.90401L1.47488 1.64645C1.33769 1.50926 1.13353 1.46382 0.95111 1.52986C0.76869 1.59591 0.64094 1.76152 0.62338 1.95473L0.26982 5.84382C0.25639 5.9916 0.30929 6.13771 0.41422 6.24264C0.51914 6.34757 0.66526 6.40047 0.81304 6.38703L4.70213 6.03348C4.89534 6.01591 5.06095 5.88817 5.12699 5.70575C5.19304 5.52332 5.1476 5.31916 5.01041 5.18198L3.7823 3.95386C3.81101 3.93235 3.83854 3.90852 3.86461 3.88236Z" fill="white"/>
<path d="M9.75 4C9.75 3.58579 9.4142 3.25 9 3.25C8.5858 3.25 8.25 3.58579 8.25 4V9C8.25 9.2586 8.3832 9.4989 8.6025 9.636L11.6025 11.511C11.9538 11.7305 12.4165 11.6238 12.636 11.2725C12.8555 10.9212 12.7488 10.4585 12.3975 10.239L9.75 8.5843V4Z" fill="white"/>
</svg>
