<svg width="11" height="14" viewBox="0 0 16 24" fill="none" xmlns="http://www.w3.org/2000/svg">
<path d="M4.47867 23.9593C4.52083 23.9858 4.54483 23.9986 4.54483 23.9986L4.47867 23.9593ZM11.2972 23.9986L11.3096 23.9893C11.2958 23.9986 11.2907 24.0022 11.2972 23.9986ZM11.5248 12.6788C10.3441 12.3818 15.1896 6.74695 6.57753 0C6.57753 0 7.70729 3.53377 2.00977 11.4193C-3.38969 18.8869 3.71532 23.4941 4.48158 23.9593C3.9923 23.648 1.03557 21.4045 5.17585 14.7534C5.97555 13.4438 7.03189 12.258 8.33831 9.58944C8.33831 9.58944 9.49502 11.196 8.89088 14.6797C7.98503 19.9467 12.8051 18.4375 12.8778 18.5112C14.5317 20.4276 11.5902 23.7718 11.3096 23.9893C11.7087 23.7281 19.8664 18.4074 13.708 10.5283C13.2725 10.9584 12.7047 12.9758 11.5248 12.6788Z" fill="#E11B1B"/>
</svg>
