<svg width="24" height="24" viewBox="0 0 24 24" fill="none" xmlns="http://www.w3.org/2000/svg">
<path fill-rule="evenodd" clip-rule="evenodd" d="M8.62899 7.03696C7.20815 8.00449 6.22545 9.5652 6.03548 11.3616L6.81782 11.152C7.41797 10.9912 8.03485 11.3474 8.19566 11.9475L9.55446 17.0186C9.71527 17.6188 9.35911 18.2356 8.75897 18.3965L5.86119 19.1729C5.26104 19.3337 4.64416 18.9776 4.48335 18.3774L3.12455 13.3063C2.96374 12.7062 3.3199 12.0893 3.92005 11.9285L4.50534 11.7716C4.59054 8.92288 6.26444 6.47455 8.66815 5.28C9.67326 4.78051 10.8059 4.5 12.0019 4.5C13.1979 4.5 14.3306 4.78051 15.3357 5.28C17.7451 6.47737 19.4212 8.93446 19.4991 11.7918L20.009 11.9285C20.6091 12.0893 20.9653 12.7062 20.8045 13.3063L19.4457 18.3774C19.2849 18.9776 18.668 19.3337 18.0678 19.1729L15.17 18.3965C14.5699 18.2356 14.2137 17.6188 14.3745 17.0186L15.7333 11.9475C15.8942 11.3474 16.511 10.9912 17.1112 11.152L17.9705 11.3823C17.7859 9.57715 16.8011 8.00819 15.3749 7.03696C15.3822 7.10561 15.3708 7.17711 15.3377 7.24353C15.2456 7.42899 15.0205 7.50463 14.835 7.41246C13.982 6.98854 13.0204 6.75 12.0019 6.75C10.9835 6.75 10.0218 6.98854 9.16882 7.41246C8.98335 7.50463 8.75828 7.42899 8.66611 7.24353C8.6331 7.17711 8.62162 7.10561 8.62899 7.03696ZM5.83518 17.627L4.6705 13.2803L6.84383 12.698L8.00851 17.0446L5.83518 17.627ZM18.0938 17.627L19.2585 13.2803L17.0852 12.698L15.9205 17.0446L18.0938 17.627Z" fill="white"/>
</svg>
