<svg viewBox="0 0 24 25" fill="none" xmlns="http://www.w3.org/2000/svg">
<path fill-rule="evenodd" clip-rule="evenodd" d="M13.293 14.7929L14.7073 16.2071L11.4144 19.5L14.7073 22.7929L13.293 24.2071L8.58594 19.5L13.293 14.7929Z" fill="white"/>
<path fill-rule="evenodd" clip-rule="evenodd" d="M16 5.57181C14.4749 4.69127 12.7018 4.33859 10.9558 4.56845C9.20978 4.79832 7.58841 5.59789 6.34314 6.84316C5.09788 8.08842 4.2983 9.70979 4.06844 11.4558C3.83857 13.2018 4.19126 14.9749 5.07179 16.5C5.34794 16.9783 5.95953 17.1422 6.43782 16.866C6.91611 16.5899 7.07999 15.9783 6.80384 15.5C6.14344 14.3562 5.87893 13.0264 6.05133 11.7169C6.22373 10.4073 6.82341 9.19132 7.75736 8.25737C8.69131 7.32342 9.90733 6.72374 11.2168 6.55134C12.5263 6.37894 13.8561 6.64346 15 7.30386C16.1438 7.96426 17.0378 8.98365 17.5433 10.2039C18.0487 11.4242 18.1374 12.7771 17.7956 14.0529C17.4537 15.3287 16.7004 16.4561 15.6526 17.2601C14.6047 18.0642 13.3208 18.5 12 18.5C11.4477 18.5 11 18.9477 11 19.5C11 20.0523 11.4477 20.5 12 20.5C13.7611 20.5 15.4729 19.9189 16.8701 18.8468C18.2672 17.7748 19.2716 16.2716 19.7274 14.5706C20.1832 12.8695 20.065 11.0656 19.391 9.43854C18.7171 7.81152 17.5251 6.45235 16 5.57181Z" fill="white"/>
</svg>
