<svg width="18" height="18" viewBox="0 0 18 18" fill="none" xmlns="http://www.w3.org/2000/svg">
<path fill-rule="evenodd" clip-rule="evenodd" d="M15 6C16.6569 6 18 4.65685 18 3C18 1.34315 16.6569 0 15 0C13.3431 0 12 1.34315 12 3C12 3.33511 12.0549 3.65739 12.1563 3.95832L5.47238 7.30029C4.93139 6.51487 4.02582 6 3 6C1.34315 6 0 7.34315 0 9C0 10.6569 1.34315 12 3 12C3.90295 12 4.71273 11.6011 5.26271 10.9699L12.0659 14.3715C12.0227 14.5742 12 14.7844 12 15C12 16.6569 13.3431 18 15 18C16.6569 18 18 16.6569 18 15C18 13.3431 16.6569 12 15 12C14.0971 12 13.2873 12.3989 12.7373 13.0301L5.93406 9.6285C5.97726 9.42582 6 9.21556 6 9C6 8.90558 5.99564 8.81217 5.9871 8.71998L12.9839 5.22158C13.5165 5.70525 14.2238 6 15 6ZM15 4.5C15.8284 4.5 16.5 3.82843 16.5 3C16.5 2.17157 15.8284 1.5 15 1.5C14.1716 1.5 13.5 2.17157 13.5 3C13.5 3.82843 14.1716 4.5 15 4.5ZM15 16.5C15.8284 16.5 16.5 15.8284 16.5 15C16.5 14.1716 15.8284 13.5 15 13.5C14.1716 13.5 13.5 14.1716 13.5 15C13.5 15.8284 14.1716 16.5 15 16.5ZM4.5 9C4.5 9.82843 3.82843 10.5 3 10.5C2.17157 10.5 1.5 9.82843 1.5 9C1.5 8.17157 2.17157 7.5 3 7.5C3.82843 7.5 4.5 8.17157 4.5 9Z" fill="white"/>
</svg>
