<svg width="12" height="11" viewBox="0 0 12 11" fill="none" xmlns="http://www.w3.org/2000/svg">
<path fill-rule="evenodd" clip-rule="evenodd" d="M4.61852 0.595012C4.96984 -0.198584 6.096 -0.198579 6.44732 0.595013L7.5232 3.02528L10.167 3.2975C11.0303 3.38639 11.3783 4.45743 10.7321 5.0368L8.75325 6.811L9.31133 9.40951C9.49356 10.258 8.58248 10.92 7.83179 10.4845L5.53292 9.15071L3.23405 10.4845C2.48336 10.92 1.57228 10.258 1.75452 9.40951L2.31259 6.811L0.333737 5.0368C-0.31245 4.45744 0.0355486 3.38639 0.898868 3.2975L3.54265 3.02527L4.61852 0.595012ZM5.53292 0.999816L4.45705 3.43008C4.31182 3.75815 4.00196 3.98327 3.64507 4.02002L1.00129 4.29224L2.98015 6.06644C3.24728 6.30595 3.36563 6.6702 3.2903 7.02098L2.73222 9.61948L5.03109 8.28574C5.34142 8.1057 5.72442 8.1057 6.03475 8.28574L8.33362 9.61949L7.77555 7.02098C7.70021 6.6702 7.81856 6.30595 8.08569 6.06644L10.0645 4.29224L7.42077 4.02002C7.06388 3.98327 6.75403 3.75815 6.60879 3.43008L5.53292 0.999816Z" fill="white"/>
</svg>
