<svg width="16" height="16" viewBox="0 0 16 16" fill="none" xmlns="http://www.w3.org/2000/svg">
<path fill-rule="evenodd" clip-rule="evenodd" d="M0 5.15685C0 4.33935 0 3.9306 0.152241 3.56306C0.304482 3.19552 0.593512 2.90649 1.17157 2.32843L1.82843 1.67157C2.40649 1.09351 2.69552 0.804482 3.06306 0.652241C3.4306 0.5 3.83935 0.5 4.65685 0.5H11.3431C12.1606 0.5 12.5694 0.5 12.9369 0.652241C13.3045 0.804482 13.5935 1.09351 14.1716 1.67157L14.8284 2.32843C15.4065 2.90649 15.6955 3.19552 15.8478 3.56306C16 3.9306 16 4.33935 16 5.15685V5.5H0V5.15685ZM11.3332 7.5H16V11.5C16 13.3856 16 14.3284 15.4142 14.9142C14.8284 15.5 13.8856 15.5 12 15.5H4C2.11438 15.5 1.17157 15.5 0.585786 14.9142C0 14.3284 0 13.3856 0 11.5V7.5H4.6665V11.1667C4.6665 11.9315 4.6665 12.3139 4.76541 12.5194C4.98621 12.9782 5.51649 13.1979 5.99705 13.0296C6.21232 12.9542 6.48272 12.6838 7.02353 12.143L7.02353 12.143C7.274 11.8925 7.39924 11.7673 7.5324 11.6969C7.82484 11.5422 8.17483 11.5422 8.46727 11.6969C8.60043 11.7673 8.72567 11.8925 8.97615 12.143C9.51695 12.6838 9.78735 12.9542 10.0026 13.0296C10.4832 13.1979 11.0135 12.9782 11.2343 12.5194C11.3332 12.3139 11.3332 11.9315 11.3332 11.1667V7.5Z" fill="#353132"/>
</svg>
