<svg width="12" height="12" viewBox="0 0 12 12" fill="none" xmlns="http://www.w3.org/2000/svg">
<path d="M2.47859 2.49076C3.37929 1.58696 4.62395 1.02857 6 1.02857C8.74567 1.02857 10.9714 3.25436 10.9714 6C10.9714 8.74567 8.74567 10.9714 6 10.9714C3.25436 10.9714 1.02857 8.74567 1.02857 6C1.02857 5.71598 0.798315 5.48571 0.514286 5.48571C0.230256 5.48571 0 5.71598 0 6C0 9.31371 2.68629 12 6 12C9.31371 12 12 9.31371 12 6C12 2.68629 9.31371 0 6 0C4.33955 0 2.83583 0.675168 1.75003 1.7647C1.73258 1.78221 1.71665 1.80067 1.70225 1.81989L0.839918 0.957566C0.745845 0.863493 0.605849 0.832334 0.480761 0.877618C0.355673 0.92291 0.268073 1.03647 0.256032 1.16896L0.0135908 3.83576C0.0043817 3.9371 0.0406561 4.03729 0.112608 4.10924C0.184553 4.18119 0.28475 4.21746 0.386085 4.20825L3.05289 3.96581C3.18538 3.95377 3.29894 3.86617 3.34422 3.74109C3.38951 3.61599 3.35835 3.476 3.26428 3.38193L2.42215 2.53979C2.44184 2.52504 2.46071 2.5087 2.47859 2.49076Z" fill="white"/>
<path d="M6.51295 2.57135C6.51295 2.28732 6.28268 2.05707 5.99866 2.05707C5.71464 2.05707 5.48438 2.28732 5.48438 2.57135V5.99992C5.48438 6.17725 5.57571 6.34203 5.72609 6.43604L7.78323 7.72175C8.02412 7.87227 8.3414 7.7991 8.49192 7.55821C8.64243 7.31732 8.56927 7.00004 8.32837 6.84952L6.51295 5.71487V2.57135Z" fill="white"/>
</svg>
