<svg width="11" height="14" viewBox="0 0 11 14" fill="none" xmlns="http://www.w3.org/2000/svg">
<path d="M3.44849 13.9762C3.47309 13.9917 3.48709 13.9992 3.48709 13.9992L3.44849 13.9762ZM7.42599 13.9992L7.43319 13.9938C7.42514 13.9992 7.42217 14.0013 7.42599 13.9992ZM7.55872 7.39597C6.87001 7.22273 9.69654 3.93572 4.67283 0C4.67283 0 5.33186 2.06137 2.0083 6.66126C-1.14138 11.0174 3.0032 13.7049 3.45019 13.9762C3.16478 13.7947 1.44002 12.4859 3.85518 8.60616C4.32168 7.84222 4.93787 7.15051 5.69995 5.59384C5.69995 5.59384 6.3747 6.53101 6.02228 8.56316C5.49387 11.6356 8.30555 10.7552 8.34796 10.7982C9.31275 11.9161 7.59689 13.8669 7.43319 13.9938C7.66602 13.8414 12.4247 10.7377 8.83226 6.14153C8.57823 6.39242 8.24701 7.56921 7.55872 7.39597Z" fill="#E11B1B"/>
</svg>
