<svg width="14" height="14" viewBox="0 0 14 14" fill="none" xmlns="http://www.w3.org/2000/svg">
<path fill-rule="evenodd" clip-rule="evenodd" d="M11.6667 4.66667C12.9553 4.66667 14 3.622 14 2.33333C14 1.04467 12.9553 0 11.6667 0C10.378 0 9.33333 1.04467 9.33333 2.33333C9.33333 2.59398 9.37607 2.84464 9.45492 3.07869L4.2563 5.678C3.83552 5.06712 3.13119 4.66667 2.33333 4.66667C1.04467 4.66667 0 5.71134 0 7C0 8.28866 1.04467 9.33333 2.33333 9.33333C3.03563 9.33333 3.66545 9.02306 4.09322 8.53212L9.38462 11.1778C9.35102 11.3355 9.33333 11.499 9.33333 11.6667C9.33333 12.9553 10.378 14 11.6667 14C12.9553 14 14 12.9553 14 11.6667C14 10.378 12.9553 9.33333 11.6667 9.33333C10.9644 9.33333 10.3345 9.6436 9.90679 10.1345L4.61538 7.48883C4.64898 7.33119 4.66667 7.16766 4.66667 7C4.66667 6.92656 4.66327 6.85391 4.65664 6.78221L10.0986 4.06123C10.5129 4.43742 11.063 4.66667 11.6667 4.66667ZM11.6667 3.5C12.311 3.5 12.8333 2.97767 12.8333 2.33333C12.8333 1.689 12.311 1.16667 11.6667 1.16667C11.0223 1.16667 10.5 1.689 10.5 2.33333C10.5 2.97767 11.0223 3.5 11.6667 3.5ZM11.6667 12.8333C12.311 12.8333 12.8333 12.311 12.8333 11.6667C12.8333 11.0223 12.311 10.5 11.6667 10.5C11.0223 10.5 10.5 11.0223 10.5 11.6667C10.5 12.311 11.0223 12.8333 11.6667 12.8333ZM3.5 7C3.5 7.64433 2.97767 8.16667 2.33333 8.16667C1.689 8.16667 1.16667 7.64433 1.16667 7C1.16667 6.35567 1.689 5.83333 2.33333 5.83333C2.97767 5.83333 3.5 6.35567 3.5 7Z" fill="white"/>
</svg>
