<svg width="15" height="12" viewBox="0 0 15 12" fill="none" xmlns="http://www.w3.org/2000/svg">
<path fill-rule="evenodd" clip-rule="evenodd" d="M8.794 3.03783C8.794 4.67377 7.46781 5.99997 5.83186 5.99997C4.19591 5.99997 2.86972 4.67377 2.86972 3.03783C2.86972 1.40188 4.19591 0.0756836 5.83186 0.0756836C7.46781 0.0756836 8.794 1.40188 8.794 3.03783ZM7.60915 3.03783C7.60915 4.0194 6.81343 4.81511 5.83186 4.81511C4.85029 4.81511 4.05457 4.0194 4.05457 3.03783C4.05457 2.05626 4.85029 1.26054 5.83186 1.26054C6.81343 1.26054 7.60915 2.05626 7.60915 3.03783Z" fill="#231F20"/>
<path d="M1.68486 11.3318C1.68486 10.8762 1.87335 10.1396 2.46769 9.5205C3.04762 8.9164 4.06729 8.36969 5.83186 8.36969C7.59642 8.36969 8.6161 8.9164 9.19603 9.5205C9.79037 10.1396 9.97886 10.8762 9.97886 11.3318C9.97886 11.659 10.2441 11.9243 10.5713 11.9243C10.8985 11.9243 11.1637 11.659 11.1637 11.3318C11.1637 10.6026 10.8783 9.56192 10.0508 8.69995C9.20888 7.82298 7.85884 7.18483 5.83186 7.18483C3.80488 7.18483 2.45484 7.82298 1.61294 8.69995C0.785449 9.56192 0.5 10.6026 0.5 11.3318C0.5 11.659 0.765239 11.9243 1.09243 11.9243C1.41962 11.9243 1.68486 11.659 1.68486 11.3318Z" fill="#231F20"/>
<path fill-rule="evenodd" clip-rule="evenodd" d="M10.9143 6.18706C11.9475 6.18706 12.7851 5.34946 12.7851 4.31623C12.7851 3.283 11.9475 2.4454 10.9143 2.4454C9.88103 2.4454 9.04343 3.283 9.04343 4.31623C9.04343 5.34946 9.88103 6.18706 10.9143 6.18706ZM10.9143 5.29841C11.4567 5.29841 11.8964 4.85867 11.8964 4.31623C11.8964 3.77378 11.4567 3.33404 10.9143 3.33404C10.3718 3.33404 9.93207 3.77378 9.93207 4.31623C9.93207 4.85867 10.3718 5.29841 10.9143 5.29841Z" fill="#231F20"/>
<path d="M10.2275 7.95433C10.4299 7.92113 10.6579 7.90201 10.9142 7.90201C11.9804 7.90201 12.5635 8.23046 12.8815 8.56173C13.214 8.908 13.3151 9.31721 13.3151 9.55457C13.3151 9.88176 13.5804 10.147 13.9076 10.147C14.2348 10.147 14.5 9.88176 14.5 9.55457C14.5 9.0436 14.3019 8.33032 13.7363 7.74118C13.1563 7.13703 12.2428 6.71715 10.9142 6.71715C10.5991 6.71715 10.3066 6.74066 10.0357 6.78509C9.71285 6.83805 9.49404 7.14272 9.547 7.46559C9.59995 7.78847 9.90463 8.00728 10.2275 7.95433Z" fill="#231F20"/>
</svg>
