<svg width="10" height="14" viewBox="0 0 10 14" fill="none" xmlns="http://www.w3.org/2000/svg">
<path d="M2.94654 13.9762C2.97114 13.9917 2.98514 13.9992 2.98514 13.9992L2.94654 13.9762ZM6.92404 13.9992L6.93124 13.9938C6.92318 13.9992 6.92022 14.0013 6.92404 13.9992ZM7.05677 7.39597C6.36805 7.22273 9.19459 3.93572 4.17088 0C4.17088 0 4.8299 2.06137 1.50635 6.66126C-1.64333 11.0174 2.50125 13.7049 2.94824 13.9762C2.66283 13.7947 0.938066 12.4859 3.35323 8.60616C3.81972 7.84222 4.43592 7.15051 5.198 5.59384C5.198 5.59384 5.87275 6.53101 5.52033 8.56316C4.99192 11.6356 7.8036 10.7552 7.84601 10.7982C8.8108 11.9161 7.09494 13.8669 6.93124 13.9938C7.16406 13.8414 11.9227 10.7377 8.33031 6.14153C8.07628 6.39242 7.74506 7.56921 7.05677 7.39597Z" fill="white"/>
</svg>
